# xmcd
#
# Track frame offsets:
#	182
#	15105
#	30792
#	40977
#	50437
#	64880
#	78877
#	87050
#	104547
#	116475
#	127600
#	146242
#	159982
#	170202
#	179475
#	192132
#	204027
#	219252
#
# Disc length: 3081 seconds
#
# Revision: 1
# Processed by: cddbd v1.5.2PL0 Copyright (c) Steve Scherf et al.
# Submitted via: EZCDAudioConverter 2.1.5.1
#
DISCID=de0c0712
DTITLE=Varios - Ultimate Tango - 18 Authentic Tangos .flac
DYEAR=1998
DGENRE=Tango
TTITLE0=Julio Cortazón - Instrumental - La Cumparsita
TTITLE1=Julio Cortazón - Instrumental - Je Vous Aime
TTITLE2=Tarantinos - Instrumental - El Rebelde
TTITLE3=Julio Cortazón - Instrumental - Noche De Reyes
TTITLE4=Julio Cortazón - Instrumental - Toccatango
TTITLE5=Julio Cortazón - Instrumental - El Choclo Sabroso
TTITLE6=Alphonse Onor - Instrumental - Buenos Tango
TTITLE7=Xavier Delisle - Instrumental - Blue Tango
TTITLE8=Tarantinos - Instrumental - Rotango
TTITLE9=Julio Cortazón - Instrumental - Passion
TTITLE10=Tarantinos - Instrumental - Buenos Aires 1925
TTITLE11=Julio Cortazón - Instrumental - Uno
TTITLE12=Jerome Gibert - Instrumental - Argentina
TTITLE13=Dominique Vernhes - Instrumental - Tango Solo
TTITLE14=Julio Cortazón - Instrumental - Le Plus Beau Tango Du Monde
TTITLE15=Marcel Azzola - Instrumental - Buenos Aires
TTITLE16=Julio Cortazón - Instrumental - Poema
TTITLE17=Granaria - Instrumental - Last Tango In Buenos Aires
EXTD=
EXTT0=
EXTT1=
EXTT2=
EXTT3=
EXTT4=
EXTT5=
EXTT6=
EXTT7=
EXTT8=
EXTT9=
EXTT10=
EXTT11=
EXTT12=
EXTT13=
EXTT14=
EXTT15=
EXTT16=
EXTT17=
PLAYORDER=
